<svg viewBox="63 50.5 694 634" fill="none" xmlns="http://www.w3.org/2000/svg">
<ellipse cx="410" cy="367.5" rx="347" ry="317" fill="white"/>
<path fill-rule="evenodd" clip-rule="evenodd" d="M161.165 163.87C229.683 110.081 316.09 78 410 78C503.91 78 590.317 110.081 658.835 163.87C594.535 101.443 506.763 63 410 63C313.237 63 225.465 101.443 161.165 163.87Z" fill="#41413E"/>
<path fill-rule="evenodd" clip-rule="evenodd" d="M658.835 571C590.317 624.788 503.91 656.87 410 656.87C316.09 656.87 229.683 624.788 161.165 571C225.465 633.426 313.237 671.87 410 671.87C506.763 671.87 594.535 633.426 658.835 571Z" fill="#41413E"/>
<path fill-rule="evenodd" clip-rule="evenodd" d="M441.5 341C461.485 341 477.819 325.366 478.939 305.661L491.5 305C493.5 305 496.9 305.9 494.5 309.5C492.1 313.1 475.833 341.333 468 355C467 356.667 465.5 360.9 467.5 364.5C469.5 368.1 470 369.667 470 370L457.5 373L456.774 371.547C456.322 370.643 455.302 370.174 454.322 370.42C453.08 370.73 452.381 372.046 452.818 373.249L455.2 379.801C455.645 381.025 456.984 381.672 458.22 381.26C459.479 380.84 460.16 379.479 459.74 378.22L459.5 377.5L468.5 375.5C470.5 376.833 475.5 379.3 479.5 378.5L479.762 379.678C470.789 386.529 465 397.339 465 409.5C465 430.211 481.789 447 502.5 447C523.211 447 540 430.211 540 409.5C540 389.46 524.281 373.092 504.5 372.052V362.5L542 355.5C545.333 357.5 552.4 361.5 554 361.5C555.6 361.5 545.667 345.5 540.5 337.5C539.833 337.167 538.7 337.1 539.5 339.5L539.778 342.556L546.5 356H544.5L540.294 348.235L540.5 350.5L513.989 355.354L507.5 348L506.5 305L506.5 305V305C508.167 305 511.5 304.6 511.5 303C511.5 301 512 300 513 301.5C514 303 515 303.5 517 303C519 302.5 519.5 300.5 517 298C515 296 513.5 293.5 513 292.5C511.5 291.667 508.5 290.9 508.5 294.5V301.5L494 301C493.833 300.667 492.8 300 490 300H482C481.122 299.122 479.578 297.665 478.398 296.773C475.229 279.273 459.914 266 441.5 266C420.789 266 404 282.789 404 303.5C404 324.211 420.789 341 441.5 341ZM500 372.082V364L484 371V376.874C488.777 374.159 494.209 372.463 500 372.082ZM487.55 384.064C491.257 381.88 495.484 380.483 500 380.104V400L487.55 384.064ZM484.228 386.339L500.5 410.5C501.833 411.667 504.5 412.8 504.5 408V380.067C519.86 381.095 532 393.88 532 409.5C532 425.792 518.792 439 502.5 439C486.208 439 473 425.792 473 409.5C473 400.108 477.389 391.741 484.228 386.339ZM441.5 333C456.921 333 469.579 321.167 470.888 306.085L444 307.5L440.135 304.338C439.234 303.601 439.107 302.271 439.852 301.377C440.513 300.585 441.653 300.392 442.537 300.922L446 303L467 301.5C467.277 301.334 467.602 301.137 467.964 300.919L467.969 300.916L467.969 300.916L467.969 300.916C468.754 300.442 469.708 299.866 470.7 299.278C468.652 284.985 456.359 274 441.5 274C425.208 274 412 287.208 412 303.5C412 319.792 425.208 333 441.5 333ZM510.276 356.034L505 349V314.45C496.458 328.409 481.63 352.739 480.5 355C479.3 357.4 481 358 482 358L505 350.5V357L510.276 356.034ZM500 359.5V356C497.333 357.167 491.4 359.8 489 361C486.6 362.2 488 363.167 489 363.5L500 359.5Z" fill="#A0E019"/>
<path opacity="0.87" fill-rule="evenodd" clip-rule="evenodd" d="M235.5 446L304.152 325.064C307.194 319.705 314.897 319.653 318.012 324.97L360.5 397.5L373.03 374.133C375.629 369.287 382.543 369.192 385.275 373.964L426.5 446H462.045C469.773 446 474.58 437.609 470.671 430.942L398.342 307.581C394.431 300.909 384.751 301.013 380.983 307.767L363 340L302.196 237.202C298.304 230.622 288.769 230.665 284.936 237.28L172.699 430.987C168.836 437.653 173.647 446 181.352 446H235.5ZM274.411 304.152C273.19 306.268 273.906 308.517 275.99 310.258L280.43 302.568C277.972 301.552 275.652 302.003 274.411 304.152ZM289.643 303.052C290.315 303.439 290.644 304.032 290.766 304.596C291.198 306.949 290.855 309.483 289.343 312.102C286.222 317.508 280.12 319.314 274.613 316.134L274.545 316.095C269.408 313.129 267.29 307.026 270.314 301.787C273.785 295.776 280.253 295.973 283.98 298.125C285.458 298.978 285.83 300.582 285.055 301.925L279.219 312.033C281.827 312.867 283.967 311.953 285.285 309.669C286.099 308.259 286.341 306.832 286.17 305.345C286.115 304.82 286.174 304.407 286.484 303.87C287.144 302.728 288.501 302.392 289.643 303.052ZM273.845 332.585C275.256 333.4 277.057 332.917 277.871 331.507C278.685 330.096 278.203 328.295 276.792 327.481L272.024 324.728C268.397 322.634 267.25 320.046 268.138 317.112C268.504 315.935 268.202 314.596 266.859 313.821C265.415 312.987 263.85 313.293 262.939 314.871C262.067 316.382 262.981 318.522 264.3 320.269L263.494 319.803C262.084 318.989 260.283 319.472 259.469 320.882C258.655 322.293 259.137 324.093 260.547 324.908L273.845 332.585ZM265.096 332.462C270.268 335.448 272.061 342.035 268.823 347.643C265.605 353.218 259.09 354.963 253.918 351.978L253.851 351.939C248.68 348.953 246.886 342.366 250.124 336.758C253.342 331.183 259.858 329.437 265.029 332.423L265.096 332.462ZM256.759 346.902C259.412 348.433 262.834 347.857 264.463 345.036C266.15 342.115 264.908 339.069 262.255 337.538L262.188 337.499C259.535 335.967 256.113 336.544 254.484 339.365C252.798 342.286 254.039 345.331 256.692 346.863L256.759 346.902ZM255.256 364.783C256.666 365.598 258.467 365.115 259.282 363.705C260.096 362.294 259.613 360.493 258.203 359.679L238.39 348.24C236.98 347.426 235.179 347.908 234.365 349.319C233.55 350.729 234.033 352.53 235.443 353.344L255.256 364.783ZM251.436 389.702C250.621 391.113 248.821 391.595 247.41 390.781L228.739 380.001C227.329 379.187 226.846 377.386 227.661 375.976C228.475 374.565 230.276 374.083 231.686 374.897L231.921 375.033C230.96 372.821 230.706 370.391 232.238 367.738C234.661 363.54 240.259 361.444 246.27 364.915L246.337 364.953C252.348 368.424 253.371 374.253 250.908 378.518C249.338 381.238 247.126 382.199 244.984 382.574L250.357 385.677C251.768 386.491 252.25 388.292 251.436 389.702ZM238.33 378.822C241.319 380.548 244.444 379.71 245.82 377.326C247.197 374.942 246.413 371.803 243.39 370.058L243.323 370.019C240.334 368.293 237.19 369.164 235.813 371.549C234.437 373.933 235.274 377.058 238.263 378.783L238.33 378.822ZM230.764 408.134C232.041 408.871 233.582 408.373 234.357 407.03C234.881 406.123 234.717 405.088 234.327 404.057L231.653 397.677L238.515 396.804C239.742 396.617 240.62 396.183 241.201 395.176C241.938 393.9 241.652 392.302 240.208 391.468C239.536 391.08 238.777 391 237.775 391.183L230.006 392.697L227.422 385.385C227.151 384.691 226.788 384.078 226.083 383.671C224.807 382.934 223.266 383.433 222.49 384.776C221.967 385.683 222.13 386.717 222.52 387.748L224.995 393.699L218.643 394.464C217.415 394.651 216.538 395.085 215.956 396.093C215.22 397.369 215.506 398.967 216.95 399.8C217.622 400.188 218.381 400.268 219.382 400.085L226.641 398.68L229.425 406.421C229.677 407.148 230.059 407.727 230.764 408.134ZM222.07 427.692L229.689 414.495C230.426 413.219 230.02 411.596 228.743 410.859C227.467 410.123 225.825 410.563 225.089 411.839L218.943 422.484L214.006 419.634L219.183 410.668C219.92 409.392 219.513 407.769 218.237 407.032C216.961 406.296 215.319 406.736 214.582 408.012L209.406 416.978L204.637 414.225L210.686 403.747C211.423 402.471 211.017 400.849 209.741 400.112C208.464 399.375 206.822 399.815 206.086 401.091L198.563 414.121C197.73 415.565 198.212 417.365 199.656 418.199L217.991 428.785C219.435 429.619 221.236 429.136 222.07 427.692Z" fill="#41413E"/>
<path d="M244.837 486.28C245.329 483.449 247.012 481.603 249.597 481.603C252.223 481.603 253.864 483.49 254.233 486.28H244.837ZM257.844 496.825C258.295 496.415 258.665 495.8 258.665 494.979C258.665 493.584 257.639 492.517 256.244 492.517C255.587 492.517 255.177 492.681 254.726 493.009C253.454 493.953 252.017 494.487 250.294 494.487C247.504 494.487 245.535 493.009 244.919 490.178H257.269C258.911 490.178 260.183 488.988 260.183 487.183C260.183 482.628 256.941 476.597 249.597 476.597C243.196 476.597 238.723 481.767 238.723 488.045V488.127C238.723 494.856 243.606 499.492 250.212 499.492C253.413 499.492 255.915 498.467 257.844 496.825Z" fill="#A0E019"/>
<path d="M266.964 489.276H274.104C275.745 489.276 277.099 487.922 277.099 486.28C277.099 484.639 275.745 483.285 274.104 483.285H266.964C265.323 483.285 263.969 484.639 263.969 486.28C263.969 487.922 265.323 489.276 266.964 489.276Z" fill="#A0E019"/>
<path d="M281.703 496.128C281.703 497.851 283.098 499.246 284.821 499.246C286.545 499.246 287.94 497.851 287.94 496.169V496.128C289.417 497.892 291.468 499.41 294.792 499.41C300.003 499.41 304.804 495.389 304.804 488.045V487.963C304.804 480.618 299.921 476.597 294.792 476.597C291.551 476.597 289.458 478.115 287.94 480.167V471.919C287.94 470.196 286.545 468.801 284.821 468.801C283.098 468.801 281.703 470.196 281.703 471.919V496.128ZM293.192 494.117C290.279 494.117 287.858 491.696 287.858 488.045V487.963C287.858 484.311 290.279 481.89 293.192 481.89C296.105 481.89 298.567 484.311 298.567 487.963V488.045C298.567 491.737 296.105 494.117 293.192 494.117Z" fill="#A0E019"/>
<path d="M309.309 471.837C309.309 473.643 310.827 474.791 312.797 474.791C314.766 474.791 316.284 473.643 316.284 471.837V471.755C316.284 469.95 314.766 468.842 312.797 468.842C310.827 468.842 309.309 469.95 309.309 471.755V471.837ZM309.678 496.128C309.678 497.851 311.073 499.246 312.797 499.246C314.52 499.246 315.915 497.851 315.915 496.128V479.879C315.915 478.156 314.52 476.761 312.797 476.761C311.073 476.761 309.678 478.156 309.678 479.879V496.128Z" fill="#A0E019"/>
<path d="M321.773 496.128C321.773 497.851 323.168 499.246 324.891 499.246C326.614 499.246 328.009 497.851 328.009 496.128V492.558L330.512 490.301L335.97 497.81C336.708 498.836 337.447 499.246 338.678 499.246C340.237 499.246 341.591 498.097 341.591 496.415C341.591 495.717 341.345 495.143 340.811 494.404L334.944 486.485L339.868 482.259C340.729 481.439 341.304 480.618 341.304 479.551C341.304 478.115 340.237 476.761 338.555 476.761C337.447 476.761 336.708 477.294 335.805 478.156L328.009 485.542V471.919C328.009 470.196 326.614 468.801 324.891 468.801C323.168 468.801 321.773 470.196 321.773 471.919V496.128Z" fill="#A0E019"/>
<path d="M350.541 486.28C351.033 483.449 352.716 481.603 355.3 481.603C357.926 481.603 359.568 483.49 359.937 486.28H350.541ZM363.548 496.825C363.999 496.415 364.368 495.8 364.368 494.979C364.368 493.584 363.343 492.517 361.948 492.517C361.291 492.517 360.881 492.681 360.429 493.009C359.157 493.953 357.721 494.487 355.998 494.487C353.208 494.487 351.238 493.009 350.623 490.178H362.973C364.615 490.178 365.887 488.988 365.887 487.183C365.887 482.628 362.645 476.597 355.3 476.597C348.9 476.597 344.427 481.767 344.427 488.045V488.127C344.427 494.856 349.31 499.492 355.916 499.492C359.116 499.492 361.619 498.467 363.548 496.825Z" fill="#A0E019"/>
<path d="M389.196 499.41C392.232 499.41 394.325 498.302 395.843 496.62V496.661C395.843 497.974 397.033 499.246 398.838 499.246C400.521 499.246 401.875 497.933 401.875 496.251V486.239C401.875 483.285 401.136 480.864 399.495 479.223C397.936 477.664 395.474 476.761 392.068 476.761C389.155 476.761 387.021 477.171 385.052 477.91C384.067 478.279 383.369 479.223 383.369 480.331C383.369 481.767 384.518 482.875 385.954 482.875C386.242 482.875 386.488 482.834 386.857 482.711C388.047 482.341 389.442 482.095 391.165 482.095C394.284 482.095 395.884 483.531 395.884 486.116V486.485C394.325 485.952 392.725 485.583 390.509 485.583C385.298 485.583 381.646 487.798 381.646 492.599V492.681C381.646 497.03 385.052 499.41 389.196 499.41ZM391.083 495.102C389.073 495.102 387.678 494.117 387.678 492.435V492.353C387.678 490.383 389.319 489.317 391.986 489.317C393.504 489.317 394.899 489.645 395.966 490.137V491.245C395.966 493.502 393.997 495.102 391.083 495.102Z" fill="#A0E019"/>
<path d="M429.357 471.919C429.357 470.196 427.962 468.801 426.239 468.801C424.516 468.801 423.121 470.196 423.121 471.919V479.879C421.643 478.115 419.592 476.597 416.268 476.597C411.057 476.597 406.257 480.618 406.257 487.963V488.045C406.257 495.389 411.139 499.41 416.268 499.41C419.51 499.41 421.602 497.892 423.121 495.841V496.128C423.121 497.851 424.516 499.246 426.239 499.246C427.962 499.246 429.357 497.851 429.357 496.128V471.919ZM417.869 481.89C420.782 481.89 423.203 484.311 423.203 487.963V488.045C423.203 491.696 420.782 494.117 417.869 494.117C414.955 494.117 412.493 491.696 412.493 488.045V487.963C412.493 484.27 414.955 481.89 417.869 481.89Z" fill="#A0E019"/>
<path d="M447.895 496.743L454.625 481.192C454.748 480.905 454.953 480.249 454.953 479.715C454.953 478.033 453.599 476.761 451.958 476.761C450.316 476.761 449.455 477.828 449.044 478.895L444.244 491.737L439.525 478.977C439.074 477.705 438.171 476.761 436.489 476.761C434.806 476.761 433.452 478.197 433.452 479.674C433.452 480.249 433.617 480.782 433.781 481.192L440.51 496.743C441.207 498.385 442.356 499.451 444.039 499.451H444.367C446.049 499.451 447.198 498.343 447.895 496.743Z" fill="#A0E019"/>
<path d="M463.377 486.28C463.869 483.449 465.552 481.603 468.137 481.603C470.763 481.603 472.404 483.49 472.773 486.28H463.377ZM476.384 496.825C476.835 496.415 477.205 495.8 477.205 494.979C477.205 493.584 476.179 492.517 474.784 492.517C474.127 492.517 473.717 492.681 473.266 493.009C471.994 493.953 470.558 494.487 468.834 494.487C466.044 494.487 464.075 493.009 463.459 490.178H475.81C477.451 490.178 478.723 488.988 478.723 487.183C478.723 482.628 475.481 476.597 468.137 476.597C461.736 476.597 457.263 481.767 457.263 488.045V488.127C457.263 494.856 462.146 499.492 468.752 499.492C471.953 499.492 474.456 498.467 476.384 496.825Z" fill="#A0E019"/>
<path d="M483.494 496.128C483.494 497.851 484.889 499.246 486.612 499.246C488.336 499.246 489.731 497.851 489.731 496.128V486.732C489.731 483.777 491.249 482.259 493.629 482.259C496.009 482.259 497.404 483.777 497.404 486.732V496.128C497.404 497.851 498.799 499.246 500.522 499.246C502.245 499.246 503.64 497.851 503.64 496.128V484.762C503.64 479.715 500.891 476.597 496.173 476.597C493.013 476.597 491.167 478.279 489.731 480.126V479.879C489.731 478.156 488.336 476.761 486.612 476.761C484.889 476.761 483.494 478.156 483.494 479.879V496.128Z" fill="#A0E019"/>
<path d="M516.485 499.369C517.839 499.369 518.906 499.205 520.055 498.754C520.917 498.426 521.655 497.523 521.655 496.415C521.655 494.979 520.465 493.83 519.07 493.83C518.947 493.83 518.537 493.871 518.332 493.871C516.936 493.871 516.321 493.174 516.321 491.737V482.341H519.07C520.547 482.341 521.737 481.151 521.737 479.674C521.737 478.197 520.547 477.007 519.07 477.007H516.321V474.258C516.321 472.535 514.926 471.14 513.203 471.14C511.479 471.14 510.084 472.535 510.084 474.258V477.007H509.879C508.402 477.007 507.212 478.197 507.212 479.674C507.212 481.151 508.402 482.341 509.879 482.341H510.084V492.763C510.084 497.851 512.669 499.369 516.485 499.369Z" fill="#A0E019"/>
<path d="M546.07 479.879C546.07 478.156 544.675 476.761 542.952 476.761C541.229 476.761 539.834 478.156 539.834 479.879V489.276C539.834 492.23 538.315 493.748 535.936 493.748C533.556 493.748 532.161 492.23 532.161 489.276V479.879C532.161 478.156 530.766 476.761 529.042 476.761C527.319 476.761 525.924 478.156 525.924 479.879V491.245C525.924 496.292 528.673 499.41 533.392 499.41C536.551 499.41 538.398 497.728 539.834 495.882V496.128C539.834 497.851 541.229 499.246 542.952 499.246C544.675 499.246 546.07 497.851 546.07 496.128V479.879Z" fill="#A0E019"/>
<path d="M551.653 496.128C551.653 497.851 553.048 499.246 554.771 499.246C556.494 499.246 557.889 497.851 557.889 496.128V490.301C557.889 485.87 559.654 483.449 562.813 482.711C564.085 482.423 565.152 481.439 565.152 479.797C565.152 478.033 564.044 476.761 562.116 476.761C560.269 476.761 558.792 478.73 557.889 480.864V479.879C557.889 478.156 556.494 476.761 554.771 476.761C553.048 476.761 551.653 478.156 551.653 479.879V496.128Z" fill="#A0E019"/>
<path d="M573.248 486.28C573.741 483.449 575.423 481.603 578.008 481.603C580.634 481.603 582.275 483.49 582.644 486.28H573.248ZM586.255 496.825C586.706 496.415 587.076 495.8 587.076 494.979C587.076 493.584 586.05 492.517 584.655 492.517C583.998 492.517 583.588 492.681 583.137 493.009C581.865 493.953 580.429 494.487 578.705 494.487C575.915 494.487 573.946 493.009 573.33 490.178H585.681C587.322 490.178 588.594 488.988 588.594 487.183C588.594 482.628 585.352 476.597 578.008 476.597C571.607 476.597 567.135 481.767 567.135 488.045V488.127C567.135 494.856 572.017 499.492 578.623 499.492C581.824 499.492 584.327 498.467 586.255 496.825Z" fill="#A0E019"/>
<path d="M601.079 499.41C605.839 499.41 609.49 497.195 609.49 492.312V492.23C609.49 488.209 605.921 486.732 602.843 485.706C600.464 484.885 598.371 484.311 598.371 483.08V482.998C598.371 482.136 599.151 481.48 600.669 481.48C601.982 481.48 603.664 482.013 605.428 482.875C605.839 483.08 606.126 483.162 606.577 483.162C607.972 483.162 609.08 482.095 609.08 480.7C609.08 479.633 608.506 478.813 607.603 478.361C605.469 477.294 603.09 476.679 600.792 476.679C596.36 476.679 592.75 479.182 592.75 483.654V483.736C592.75 488.004 596.237 489.44 599.315 490.342C601.736 491.081 603.869 491.532 603.869 492.886V492.968C603.869 493.953 603.048 494.61 601.243 494.61C599.479 494.61 597.386 493.953 595.294 492.64C594.965 492.435 594.514 492.312 594.063 492.312C592.668 492.312 591.601 493.379 591.601 494.774C591.601 495.759 592.134 496.497 592.791 496.907C595.458 498.631 598.371 499.41 601.079 499.41Z" fill="#A0E019"/>
<path opacity="0.87" d="M567.5 398.5V443.5C560.535 444.495 553.465 444.495 546.5 443.5V393.361C546.5 391.843 547.061 390.365 548.167 389.325C558.904 379.232 573.852 377.709 580.5 378.5C591.5 379 593.5 395.5 582.5 395C573.7 394.6 570.333 397 567.5 398.5Z" fill="#41413E"/>
<path opacity="0.87" fill-rule="evenodd" clip-rule="evenodd" d="M617.5 420.5L655 415C656.667 414.333 659.8 411.2 659 404C658 395 648.5 378.5 632 378.5C615.5 378.5 602 385 596 402C590 419 603 436.5 608 439.5C613 442.5 624.5 447 638.5 445.5C649.7 444.3 654.167 438 655 435C655.833 433.167 656.5 428.7 652.5 425.5C649.5 427.333 641.2 430.8 632 430C620.5 429 617.5 423.5 617.5 420.5ZM614.5 406L639 403C638 399.667 635 392.553 626.5 393C617.5 393.474 615.333 402 614.5 406Z" fill="#41413E"/>
</svg>
